#!OML:ASF F:\VICON\USERDATA\INSTALL\rory3\rory3.ASF
:FULLY-SPECIFIED
:DEGREES
2206
root 1.60747 13.8955 -6.89903 -367.984 -4.68794 357.925
lowerback 21.1529 2.71338 -2.29544
upperback 2.72442 3.22046 1.97607
thorax -9.09447 1.64848 2.55294
lowerneck -15.4312 -4.41636 -1.89851
upperneck 18.738 -6.44528 3.75477
head 8.57527 -2.7838 0.806068
rclavicle -4.33599e-015 1.09332e-014
rhumerus 31.9683 7.2816 -72.2701
rradius 63.5526
rwrist 19.3745
rhand -16.7345 33.4983
rfingers 7.12502
rthumb 9.49151 3.7321
lclavicle -4.33599e-015 1.09332e-014
lhumerus 4.53173 -40.731 69.2365
lradius 27.9929
lwrist -4.37976
lhand -10.0019 15.4138
lfingers 7.12502
lthumb 15.9818 44.7746
rfemur 0.0544831 -16.9834 4.11417
rtibia 58.7964
rfoot -38.9054 -3.07784
rtoes -22.6775
lfemur -43.9088 8.5978 -6.82257
ltibia 70.7869
lfoot -11.9202 -8.79547
ltoes -14.9181
2207
root 1.53584 13.9044 -6.97942 -368.19 -4.49802 357.896
lowerback 21.2923 2.70754 -2.29631
upperback 2.90972 3.21901 2.09122
thorax -8.97155 1.64636 2.67898
lowerneck -15.9475 -4.32875 -1.91526
upperneck 18.705 -6.29269 3.66543
head 8.64968 -2.7148 0.787302
rclavicle -3.6477e-014 -9.34288e-015
rhumerus 32.6953 7.79934 -72.0912
rradius 62.7862
rwrist 19.2205
rhand -18.7839 34.7191
rfingers 7.12502
rthumb 7.51377 4.87254
lclavicle -3.6477e-014 -9.34288e-015
lhumerus 5.00392 -40.6026 68.9753
lradius 28.0044
lwrist -1.96737
lhand -9.97832 16.0264
lfingers 7.12502
lthumb 16.0045 45.3853
rfemur -0.355324 -17.3833 4.57214
rtibia 59.2115
rfoot -38.5738 -5.71444
rtoes -27.8686
lfemur -43.7368 8.40289 -6.49456
ltibia 70.2447
lfoot -11.3802 -9.08162
ltoes -14.6522
2208
root 1.46936 13.8975 -7.05876 -368.318 -4.30777 358.132
lowerback 21.1919 2.76117 -2.39341
upperback 2.93835 3.26165 2.0131
thorax -8.88925 1.66788 2.63974
lowerneck -15.6239 -4.33991 -1.80809
upperneck 18.3716 -6.32721 3.69135
head 8.47696 -2.73134 0.783205
rclavicle 4.39811e-015 2.38542e-015
rhumerus 32.8288 8.23567 -72.135
rradius 62.4627
rwrist 18.0301
rhand -18.1281 33.952
rfingers 7.12502
rthumb 8.14668 4.12906
lclavicle 4.39811e-015 2.38542e-015
lhumerus 4.63099 -39.5414 69.2516
lradius 28.1365
lwrist -1.90727
lhand -9.37246 16.0112
lfingers 7.12502
lthumb 16.5879 45.3222
rfemur -0.470939 -17.4896 4.48859
rtibia 59.6468
rfoot -39.0838 -2.18502
rtoes -19.5924
lfemur -43.7043 8.14163 -6.51503
ltibia 69.6647
lfoot -10.8487 -9.02933
ltoes -15.666
2209
root 1.39659 13.9026 -7.13975 -368.471 -4.1402 358.079
lowerback 21.535 2.77029 -2.23503
upperback 2.81589 3.3074 2.03336
thorax -9.20529 1.68799 2.54558
lowerneck -15.2686 -4.35876 -1.88691
upperneck 18.0668 -6.34208 3.783
head 8.31684 -2.7451 0.834154
rclavicle -1.46355e-014 -1.11319e-014
rhumerus 32.5709 8.66075 -72.4358
rradius 61.2977
rwrist 16.7225
rhand -18.9258 34.7564
rfingers 7.12502
rthumb 7.3768 4.90499
lclavicle -1.46355e-014 -1.11319e-014
lhumerus 4.22594 -38.2101 69.9337
lradius 27.7645
lwrist -2.56503
lhand -9.13351 15.9589
lfingers 7.12502
lthumb 16.8179 45.2506
rfemur -0.824985 -17.6529 4.95149
rtibia 60.1108
rfoot -39.271 -2.28629
rtoes -19.1956
lfemur -43.5927 8.02573 -6.18531
ltibia 69.0084
lfoot -10.193 -9.16762
ltoes -16.024
2210
root 1.32478 13.9204 -7.22209 -368.565 -3.92192 358.33
lowerback 21.4628 2.79199 -2.43051
upperback 2.88834 3.28924 2.01117
thorax -9.09429 1.68436 2.64164
lowerneck -15.3756 -4.27794 -1.88055
upperneck 18.0998 -6.24092 3.82347
head 8.34527 -2.69036 0.85638
rclavicle 1.51325e-014 -8.74653e-015
rhumerus 32.9231 9.06797 -72.841
rradius 60.5131
rwrist 15.5899
rhand -18.5844 34.2752
rfingers 7.12502
rthumb 7.70631 4.43565
lclavicle 1.51325e-014 -8.74653e-015
lhumerus 3.88953 -36.4363 70.4902
lradius 27.7363
lwrist -2.797
lhand -8.81092 16.1695
lfingers 7.12502
lthumb 17.1284 45.4345
rfemur -1.28141 -17.913 5.02763
rtibia 60.6452
rfoot -39.3663 -2.14912
rtoes -18.4312
lfemur -43.38 7.82492 -6.23934
ltibia 68.1181
lfoot -9.56742 -9.11382
ltoes -16.9749
2211
root 1.25234 13.9299 -7.30543 -368.722 -3.77125 358.393
lowerback 21.9237 2.84181 -2.50171
upperback 2.72216 3.33668 2.07065
thorax -9.53859 1.7158 2.71697
lowerneck -15.4599 -4.26339 -1.96448
upperneck 18.1869 -6.20176 3.81371
head 8.39079 -2.67584 0.86928
rclavicle -8.77137e-015 1.53064e-014
rhumerus 32.9559 9.58844 -72.9104
rradius 59.891
rwrist 14.3725
rhand -18.9236 34.925
rfingers 7.12502
rthumb 7.37887 5.07366
lclavicle -8.77137e-015 1.53064e-014
lhumerus 3.49841 -36.3125 70.8772
lradius 27.6401
lwrist -1.23174
lhand -10.4292 15.7738
lfingers 7.12502
lthumb 15.5703 45.1671
rfemur -1.62031 -18.049 5.37585
rtibia 61.0273
rfoot -39.4572 -2.0457
rtoes -17.1626
lfemur -43.1856 7.59491 -6.03552
ltibia 67.3781
lfoot -8.73514 -9.17582
ltoes -16.7894
2212
root 1.18472 13.931 -7.38006 -368.883 -3.48094 358.727
lowerback 21.7248 2.82118 -2.65587
upperback 2.90463 3.26721 1.98398
thorax -9.22635 1.68195 2.73943
lowerneck -15.9107 -4.2312 -1.80019
upperneck 18.2288 -6.17796 3.73381
head 8.47701 -2.6536 0.809622
rclavicle 5.06901e-015 1.96797e-014
rhumerus 33.1327 9.94109 -73.1942
rradius 59.2766
rwrist 13.8264
rhand -17.8541 34.0303
rfingers 7.12502
rthumb 8.41115 4.21783
lclavicle 5.06901e-015 1.96797e-014
lhumerus 3.48977 -34.9542 71.0892
lradius 27.5271
lwrist -0.428289
lhand -8.04473 17.4037
lfingers 7.12502
lthumb 17.8658 46.603
rfemur -1.90401 -18.3649 5.26325
rtibia 61.4676
rfoot -39.5622 -2.26129
rtoes -17.2423
lfemur -42.9712 7.18498 -6.15373
ltibia 66.7889
lfoot -8.22155 -9.24506
ltoes -15.3512
2213
root 1.10826 13.9341 -7.46454 -369.048 -3.27092 358.67
lowerback 21.6094 2.86958 -2.6501
upperback 2.94763 3.34571 2.0897
thorax -9.12885 1.72033 2.83315
lowerneck -15.0355 -4.26494 -1.87426
upperneck 17.6759 -6.20191 3.80147
head 8.14004 -2.68584 0.862355
rclavicle -1.52319e-014 1.51076e-014
rhumerus 33.2095 10.1055 -73.4683
rradius 58.699
rwrist 13.3806
rhand -15.4708 32.8112
rfingers 7.12502
rthumb 10.7106 3.10419
lclavicle -1.52319e-014 1.51076e-014
lhumerus 3.22122 -34.2913 71.4506
lradius 27.4719
lwrist -0.0689651
lhand -8.32057 16.8229
lfingers 7.12502
lthumb 17.6004 46.0463
rfemur -2.18091 -18.5648 5.72324
rtibia 61.8757
rfoot -39.733 -1.88273
rtoes -15.3858
lfemur -42.8381 7.04036 -5.86178
ltibia 66.0899
lfoot -7.82113 -9.14045
ltoes -19.0528
2214
root 1.03995 13.9469 -7.542 -369.198 -3.0521 358.755
lowerback 22.045 2.81722 -2.39494
upperback 2.78891 3.31619 1.95707
thorax -9.51462 1.69881 2.53409
lowerneck -15.3264 -4.26983 -1.84518
upperneck 17.9968 -6.23776 3.84491
head 8.30142 -2.68639 0.859841
rclavicle -2.57426e-014 7.95139e-015
rhumerus 33.1398 10.5846 -73.9072
rradius 58.0774
rwrist 12.1571
rhand -15.2301 31.9067
rfingers 7.12502
rthumb 10.9428 2.21184
lclavicle -2.57426e-014 7.95139e-015
lhumerus 2.5795 -33.0236 71.9485
lradius 27.2769
lwrist -0.336911
lhand -8.22045 16.842
lfingers 7.12502
lthumb 17.6967 46.0567
rfemur -2.45202 -18.7292 6.00645
rtibia 62.1951
rfoot -39.7742 -1.56288
rtoes -13.1924
lfemur -42.6112 6.64865 -5.6956
ltibia 65.3374
lfoot -6.99836 -9.25101
ltoes -17.1205
2215
root 0.961254 13.9573 -7.61863 -369.251 -3.03238 358.728
lowerback 21.5406 2.90016 -2.46245
upperback 3.00923 3.42975 2.07893
thorax -9.01826 1.75227 2.69222
lowerneck -15.2828 -4.26393 -1.81523
upperneck 17.7996 -6.20266 3.72886
head 8.22115 -2.68341 0.822858
rclavicle -1.47349e-014 5.56597e-015
rhumerus 33.3871 11.0326 -73.9349
rradius 57.2724
rwrist 11.3334
rhand -15.341 31.6649
rfingers 7.12502
rthumb 10.8358 1.96443
lclavicle -1.47349e-014 5.56597e-015
lhumerus 2.57523 -32.5352 71.9939
lradius 27.1281
lwrist -0.214327
lhand -8.25479 16.0351
lfingers 7.12502
lthumb 17.6637 45.2528
rfemur -2.93214 -18.76 6.58975
rtibia 62.5045
rfoot -39.8722 -1.75413
rtoes -12.7341
lfemur -42.39 6.68278 -5.35159
ltibia 64.5151
lfoot -6.32956 -9.38672
ltoes -17.954
2216
root 0.890777 13.9646 -7.69837 -369.549 -2.77708 358.588
lowerback 22.1159 2.82739 -2.07768
upperback 2.85204 3.41449 2.05815
thorax -9.47741 1.73492 2.43301
lowerneck -15.3294 -4.27359 -1.8008
upperneck 17.9407 -6.22957 3.74579
head 8.27779 -2.69031 0.82103
rclavicle -1.61264e-014 4.37326e-015
rhumerus 33.11 11.6283 -74.191
rradius 56.382
rwrist 10.019
rhand -17.9133 33.083
rfingers 7.12502
rthumb 8.35405 3.26825
lclavicle -1.61264e-014 4.37326e-015
lhumerus 1.93322 -31.0629 72.5632
lradius 27.4028
lwrist 0.992611
lhand -6.69423 17.0225
lfingers 7.12502
lthumb 19.1649 46.0982
rfemur -3.02466 -18.9529 7.13026
rtibia 62.7034
rfoot -39.8638 -2.143
rtoes -12.3969
lfemur -42.0372 6.50745 -4.96997
ltibia 63.707
lfoot -5.73432 -9.58988
ltoes -18.5465
2217
root 0.817934 13.9732 -7.78171 -369.663 -2.5846 358.889
lowerback 21.973 2.9256 -2.41949
upperback 2.9411 3.46653 2.08297
thorax -9.32658 1.77107 2.64599
lowerneck -15.0405 -4.23875 -1.81272
upperneck 17.6165 -6.16485 3.74366
head 8.11593 -2.67049 0.837958
rclavicle 1.59028e-014 -7.95139e-016
rhumerus 33.0899 12.1502 -74.1629
rradius 55.9968
rwrist 8.81884
rhand -16.7985 32.7338
rfingers 7.12502
rthumb 9.42979 2.96474
lclavicle 1.59028e-014 -7.95139e-016
lhumerus 1.73849 -30.4453 72.8451
lradius 27.5286
lwrist 2.05685
lhand -7.37738 16.2297
lfingers 7.12502
lthumb 18.5078 45.3692
rfemur -3.40066 -19.1615 7.16647
rtibia 63.1156
rfoot -40.0128 -1.78226
rtoes -10.887
lfemur -41.7143 6.02965 -5.03729
ltibia 62.7575
lfoot -5.22547 -9.34745
ltoes -19.7196
2218
root 0.745313 13.9895 -7.8577 -369.751 -2.30544 359.308
lowerback 22.0182 2.9548 -2.73641
upperback 2.91088 3.41772 1.96812
thorax -9.39172 1.75805 2.71342
lowerneck -14.9799 -4.20849 -1.67662
upperneck 17.5888 -6.11677 3.56184
head 8.08374 -2.65817 0.762852
rclavicle 6.83322e-015 -5.1684e-015
rhumerus 32.9582 12.6974 -74.3066
rradius 55.7981
rwrist 7.64243
rhand -16.8668 32.018
rfingers 7.12502
rthumb 9.36388 2.24603
lclavicle 6.83322e-015 -5.1684e-015
lhumerus 1.12973 -29.1787 73.1989
lradius 27.6951
lwrist 2.15066
lhand -7.73448 15.3222
lfingers 7.12502
lthumb 18.1643 44.4941
rfemur -3.74843 -19.2652 7.14911
rtibia 63.47
rfoot -40.1244 -2.00505
rtoes -10.4013
lfemur -41.3209 5.69439 -5.29064
ltibia 61.6891
lfoot -4.78573 -9.3819
ltoes -20.8156
2219
root 0.672981 13.993 -7.93703 -369.693 -2.16883 359.287
lowerback 21.8626 2.95034 -2.71169
upperback 2.83531 3.4294 2.03113
thorax -9.39589 1.76583 2.7688
lowerneck -14.9255 -4.18189 -1.85463
upperneck 17.6573 -6.07858 3.73954
head 8.10762 -2.6338 0.855582
rclavicle 2.2239e-014 2.38542e-015
rhumerus 32.931 13.1111 -74.6701
rradius 55.3998
rwrist 6.12077
rhand -15.5904 31.6894
rfingers 7.12502
rthumb 10.5953 1.97644
lclavicle 2.2239e-014 2.38542e-015
lhumerus 0.653559 -28.1123 73.5744
lradius 27.7255
lwrist 2.83448
lhand -7.22803 16.2104
lfingers 7.12502
lthumb 18.6515 45.3362
rfemur -4.32149 -19.4172 7.68218
rtibia 63.7283
rfoot -40.1602 -1.9572
rtoes -8.92595
lfemur -41.3044 5.5508 -5.04741
ltibia 60.7652
lfoot -4.20377 -9.38364
ltoes -22.05
2220
root 0.60162 14 -8.01415 -369.824 -1.87652 359.355
lowerback 22.147 2.95085 -2.54593
upperback 2.69578 3.45243 1.91108
thorax -9.68859 1.77174 2.5229
lowerneck -14.936 -4.24266 -1.66397
upperneck 17.7427 -6.20712 3.71995
head 8.13525 -2.68209 0.802304
rclavicle 1.69712e-014 7.15625e-015
rhumerus 32.3206 13.2011 -75.3752
rradius 55.2931
rwrist 4.89667
rhand -14.6923 31.0324
rfingers 7.12502
rthumb 11.4615 1.36573
lclavicle 1.69712e-014 7.15625e-015
lhumerus 0.1138 -27.5762 73.8075
lradius 27.8095
lwrist 3.73763
lhand -7.08249 16.3646
lfingers 7.12502
lthumb 18.7915 45.4769
rfemur -4.63972 -19.6157 8.02626
rtibia 64.072
rfoot -40.2675 -2.25399
rtoes -8.8166
lfemur -41.052 5.09999 -4.88377
ltibia 59.8625
lfoot -3.63883 -9.32039
ltoes -22.5704
